<svg id="svg" version="1.1" width="40px" height="40px" viewBox="0 0 600 547" xmlns="http://www.w3.org/2000/svg" xmlns:xlink="http://www.w3.org/1999/xlink" style="display: block;"><g id="svgg"><path id="path0" d="M174.667 0.667 C 174.667 1.033,174.185 1.333,173.595 1.333 C 172.936 1.333,172.666 1.703,172.893 2.295 C 173.098 2.830,165.794 16.784,156.404 33.795 C 128.271 84.758,27.365 267.404,13.205 292.994 C 5.453 307.004,0.054 317.469,0.231 318.144 C 0.397 318.780,6.285 328.752,13.316 340.304 C 23.338 356.774,25.999 361.620,25.639 362.755 C 25.285 363.870,25.408 364.114,26.175 363.820 C 26.723 363.609,27.520 363.787,27.947 364.213 C 28.536 364.803,28.845 364.791,29.233 364.162 C 29.637 363.509,65.945 363.301,202.605 363.168 L 375.467 363.000 387.721 340.000 C 399.561 317.777,400.807 315.141,399.300 315.500 C 398.545 315.680,397.909 314.537,341.003 210.667 C 302.304 140.031,282.818 104.467,251.511 47.333 C 241.968 29.917,232.398 12.445,230.246 8.507 L 226.333 1.347 201.539 1.340 C 185.737 1.336,176.596 1.092,176.333 0.667 C 175.800 -0.196,174.667 -0.196,174.667 0.667 M309.359 159.727 C 356.095 245.010,394.430 315.210,394.549 315.727 C 394.734 316.533,373.881 316.667,247.660 316.667 C 166.753 316.667,100.656 316.418,100.778 316.114 C 100.900 315.810,106.648 306.210,113.551 294.781 L 126.101 274.000 226.644 274.000 L 327.186 274.000 321.349 263.500 C 308.318 240.057,179.474 7.558,178.742 6.167 L 177.953 4.667 201.169 4.667 L 224.384 4.667 309.359 159.727 M201.944 53.679 C 300.910 232.148,322.000 270.285,322.000 270.777 C 322.000 271.083,311.119 271.333,297.819 271.333 L 273.638 271.333 224.574 179.378 L 175.511 87.423 102.346 222.545 C 62.105 296.862,28.986 357.881,28.748 358.143 C 28.292 358.643,3.794 318.862,3.784 317.604 C 3.774 316.404,174.954 6.706,175.536 6.872 C 175.831 6.955,187.714 28.019,201.944 53.679 M189.606 119.489 L 199.442 137.977 147.721 228.378 C 119.274 278.098,96.000 318.828,96.000 318.889 C 96.000 318.950,163.200 318.924,245.333 318.830 C 364.737 318.695,394.660 318.828,394.634 319.497 C 394.615 319.957,389.849 329.183,384.043 340.000 L 373.485 359.667 202.375 360.000 C 50.495 360.296,31.295 360.221,31.532 359.333 C 31.746 358.529,164.742 112.611,173.161 97.453 L 175.501 93.239 177.635 97.119 C 178.809 99.254,184.196 109.320,189.606 119.489 M236.301 208.350 C 254.469 242.380,269.232 270.323,269.108 270.447 C 268.984 270.571,237.077 270.596,198.203 270.503 L 127.523 270.333 164.219 206.112 L 200.915 141.891 202.092 144.184 C 202.739 145.446,218.133 174.320,236.301 208.350 " stroke="none" fill="#ffffff" fill-rule="evenodd"></path><path id="path1" d="M191.634 28.500 C 263.579 158.066,327.333 273.390,327.333 273.962 C 327.333 274.454,296.995 274.667,226.816 274.667 L 126.298 274.667 113.827 295.333 L 101.356 316.000 247.749 316.000 C 364.594 316.000,394.077 315.832,393.816 315.167 C 393.636 314.708,367.021 266.033,334.672 207.000 C 302.323 147.967,264.263 78.453,250.094 52.525 L 224.333 5.384 201.552 5.359 L 178.771 5.333 191.634 28.500 M171.803 13.786 C 169.792 17.387,138.902 73.283,103.159 138.000 C 67.417 202.717,30.491 269.575,21.102 286.573 C 7.206 311.731,4.154 317.709,4.693 318.716 C 5.057 319.395,10.548 328.484,16.895 338.912 L 28.435 357.873 101.384 223.183 C 141.506 149.103,174.633 88.077,175.000 87.569 C 175.498 86.880,188.091 109.928,224.677 178.490 L 273.688 270.333 297.511 270.508 C 310.613 270.605,321.333 270.548,321.333 270.382 C 321.333 270.115,303.434 237.781,201.179 53.333 C 187.255 28.217,175.772 7.570,175.662 7.453 C 175.551 7.335,173.815 10.185,171.803 13.786 M174.472 96.109 C 172.926 98.596,32.784 357.585,32.297 358.855 C 31.881 359.939,41.292 359.993,202.393 359.835 L 372.930 359.667 383.437 340.000 C 389.216 329.183,393.956 320.108,393.972 319.833 C 393.987 319.558,326.800 319.333,244.667 319.333 C 162.533 319.333,95.333 319.093,95.333 318.800 C 95.333 318.507,95.601 317.982,95.927 317.633 C 96.557 316.962,197.895 139.715,198.397 138.408 C 198.630 137.799,176.889 96.000,175.743 94.854 C 175.576 94.687,175.004 95.252,174.472 96.109 " stroke="none" fill="#ea088c" fill-rule="evenodd"></path><path id="path2" d="M189.833 5.166 C 196.158 5.275,206.508 5.275,212.833 5.166 C 219.158 5.056,213.983 4.966,201.333 4.966 C 188.683 4.966,183.508 5.056,189.833 5.166 M176.886 274.500 C 204.689 274.596,249.989 274.596,277.552 274.500 C 305.115 274.404,282.367 274.325,227.000 274.325 C 171.633 274.325,149.082 274.404,176.886 274.500 " stroke="none" fill="#f153af" fill-rule="evenodd"></path><path id="path3" d="M285.833 271.166 C 292.525 271.274,303.475 271.274,310.167 271.166 C 316.858 271.057,311.383 270.968,298.000 270.968 C 284.617 270.968,279.142 271.057,285.833 271.166 " stroke="none" fill="#f382bf" fill-rule="evenodd"></path><path id="path4" d="M100.667 316.167 C 100.667 316.442,166.892 316.593,247.833 316.504 C 328.775 316.415,371.150 316.265,342.000 316.171 C 200.687 315.717,100.667 315.715,100.667 316.167 M171.220 319.167 C 212.408 319.261,279.608 319.261,320.553 319.167 C 361.499 319.072,327.800 318.994,245.667 318.994 C 163.533 318.994,130.032 319.072,171.220 319.167 " stroke="none" fill="#fbd8ea" fill-rule="evenodd"></path></g></svg>