<svg id="svg" version="1.1" width="40px" height="40px" viewBox="0 0 500 577" xmlns="http://www.w3.org/2000/svg" xmlns:xlink="http://www.w3.org/1999/xlink" style="display: block;"><g id="svgg"><path id="path0" d="M333.285 238.067 C 332.986 238.846,333.165 239.212,333.749 239.017 C 334.945 238.618,335.604 236.800,334.552 236.800 C 334.123 236.800,333.552 237.370,333.285 238.067 M319.733 245.333 C 318.969 246.098,319.076 247.200,319.914 247.200 C 320.307 247.200,320.836 246.660,321.089 246.000 C 321.557 244.781,320.705 244.362,319.733 245.333 M92.800 253.618 C 92.800 254.076,93.356 254.663,94.035 254.924 C 95.911 255.644,96.131 254.867,94.364 253.763 C 93.374 253.145,92.800 253.092,92.800 253.618 M283.801 266.273 C 281.198 267.844,280.796 269.271,283.369 267.807 C 285.536 266.574,287.554 264.773,286.657 264.873 C 286.296 264.913,285.011 265.543,283.801 266.273 " stroke="none" fill="#000000" fill-rule="evenodd"></path><path id="path1" d="" stroke="none" fill="#ff0000" fill-rule="evenodd"></path><path id="path2" d="M193.400 0.930 C 192.190 1.372,191.200 2.063,191.200 2.467 C 191.200 2.870,190.660 3.200,190.000 3.200 C 189.340 3.200,188.800 3.560,188.800 4.000 C 188.800 4.440,188.069 4.800,187.175 4.800 C 186.281 4.800,185.343 5.340,185.089 6.000 C 184.836 6.660,183.947 7.200,183.114 7.200 C 182.281 7.200,181.600 7.521,181.600 7.913 C 181.600 8.306,180.700 8.852,179.600 9.129 C 178.500 9.405,177.600 9.984,177.600 10.415 C 177.600 10.847,177.060 11.200,176.400 11.200 C 175.740 11.200,175.200 11.560,175.200 12.000 C 175.200 12.440,174.300 12.800,173.200 12.800 C 171.956 12.800,171.200 13.253,171.200 14.000 C 171.200 14.660,170.715 15.200,170.123 15.200 C 168.519 15.200,164.000 17.605,164.000 18.459 C 164.000 18.866,163.280 19.200,162.400 19.200 C 161.520 19.200,160.800 19.560,160.800 20.000 C 160.800 20.440,160.119 20.800,159.286 20.800 C 158.453 20.800,157.564 21.340,157.311 22.000 C 157.057 22.660,156.119 23.200,155.225 23.200 C 154.331 23.200,153.600 23.475,153.600 23.810 C 153.600 24.421,151.230 25.866,148.600 26.858 C 147.830 27.149,147.200 27.705,147.200 28.093 C 147.200 28.482,146.469 28.800,145.575 28.800 C 144.681 28.800,143.743 29.340,143.489 30.000 C 143.236 30.660,142.347 31.200,141.514 31.200 C 140.681 31.200,140.000 31.560,140.000 32.000 C 140.000 32.440,139.449 32.800,138.775 32.800 C 138.101 32.800,137.343 33.340,137.089 34.000 C 136.836 34.660,135.969 35.200,135.162 35.200 C 134.355 35.200,133.472 35.560,133.200 36.000 C 132.928 36.440,132.045 36.800,131.238 36.800 C 130.431 36.800,129.564 37.340,129.311 38.000 C 129.057 38.660,128.299 39.200,127.625 39.200 C 126.951 39.200,126.400 39.560,126.400 40.000 C 126.400 40.440,125.849 40.800,125.175 40.800 C 124.501 40.800,123.743 41.340,123.489 42.000 C 123.236 42.660,122.167 43.200,121.114 43.200 C 120.061 43.200,119.200 43.560,119.200 44.000 C 119.200 44.440,118.498 44.800,117.640 44.800 C 116.782 44.800,115.792 45.269,115.440 45.843 C 115.088 46.417,113.450 47.514,111.800 48.281 C 110.150 49.048,108.800 50.018,108.800 50.438 C 108.800 50.857,108.315 51.200,107.723 51.200 C 106.168 51.200,102.262 53.264,100.223 55.164 C 99.257 56.064,97.732 56.800,96.833 56.800 C 95.915 56.800,95.200 57.325,95.200 58.000 C 95.200 58.747,94.444 59.200,93.200 59.200 C 92.100 59.200,91.200 59.521,91.200 59.913 C 91.200 60.306,90.300 60.852,89.200 61.129 C 88.100 61.405,87.200 61.984,87.200 62.415 C 87.200 62.847,86.660 63.200,86.000 63.200 C 85.340 63.200,84.800 63.560,84.800 64.000 C 84.800 64.440,84.069 64.800,83.175 64.800 C 82.281 64.800,81.343 65.340,81.089 66.000 C 80.836 66.660,79.947 67.200,79.114 67.200 C 78.281 67.200,77.600 67.475,77.600 67.810 C 77.600 68.421,75.230 69.866,72.600 70.858 C 71.830 71.149,71.200 71.705,71.200 72.093 C 71.200 72.482,70.300 72.800,69.200 72.800 C 67.956 72.800,67.200 73.253,67.200 74.000 C 67.200 74.675,66.485 75.200,65.566 75.200 C 64.041 75.200,63.277 75.647,60.429 78.200 C 59.816 78.750,58.749 79.200,58.057 79.200 C 57.366 79.200,56.800 79.560,56.800 80.000 C 56.800 80.440,56.069 80.800,55.175 80.800 C 54.281 80.800,53.343 81.340,53.089 82.000 C 52.836 82.660,51.947 83.200,51.114 83.200 C 50.281 83.200,49.600 83.560,49.600 84.000 C 49.600 84.440,49.060 84.800,48.400 84.800 C 47.740 84.800,47.200 85.340,47.200 86.000 C 47.200 86.747,46.444 87.200,45.200 87.200 C 44.100 87.200,43.200 87.560,43.200 88.000 C 43.200 88.440,42.469 88.800,41.575 88.800 C 40.681 88.800,39.743 89.340,39.489 90.000 C 39.236 90.660,38.347 91.200,37.514 91.200 C 36.681 91.200,36.000 91.560,36.000 92.000 C 36.000 92.440,35.449 92.800,34.775 92.800 C 34.101 92.800,33.343 93.340,33.089 94.000 C 32.836 94.660,32.183 95.200,31.637 95.200 C 30.100 95.200,25.600 97.629,25.600 98.459 C 25.600 98.866,25.132 99.200,24.559 99.200 C 22.723 99.200,19.213 101.167,19.206 102.200 C 19.203 102.750,18.300 103.200,17.200 103.200 C 16.100 103.200,15.200 103.560,15.200 104.000 C 15.200 104.440,14.469 104.800,13.575 104.800 C 12.681 104.800,11.743 105.340,11.489 106.000 C 11.236 106.660,10.527 107.200,9.914 107.200 C 9.301 107.200,8.800 107.560,8.800 108.000 C 8.800 108.440,8.069 108.800,7.175 108.800 C 6.281 108.800,5.343 109.340,5.089 110.000 C 4.836 110.660,4.019 111.200,3.274 111.200 C 2.529 111.200,1.488 111.632,0.960 112.160 C -0.337 113.457,-0.444 258.400,0.852 258.400 C 1.320 258.400,6.090 255.840,11.452 252.711 C 16.813 249.582,23.720 245.562,26.800 243.777 C 29.880 241.992,34.115 239.512,36.212 238.266 C 38.309 237.020,40.193 236.000,40.400 236.000 C 40.607 236.000,42.504 234.937,44.617 233.637 C 46.729 232.337,49.974 231.031,51.829 230.735 C 53.683 230.438,55.200 229.882,55.200 229.498 C 55.200 229.114,55.757 228.800,56.438 228.800 C 57.120 228.800,59.550 227.608,61.838 226.151 C 64.127 224.695,66.630 223.266,67.400 222.976 C 68.170 222.687,68.800 222.079,68.800 221.625 C 68.800 221.171,69.700 220.800,70.800 220.800 C 71.900 220.800,72.800 220.440,72.800 220.000 C 72.800 219.560,73.314 219.200,73.943 219.200 C 74.571 219.200,75.561 218.736,76.143 218.170 C 76.724 217.603,78.550 216.506,80.200 215.732 C 81.850 214.958,83.200 213.982,83.200 213.562 C 83.200 213.143,83.753 212.800,84.428 212.800 C 85.512 212.800,89.310 210.772,90.400 209.611 C 90.620 209.376,92.150 208.476,93.800 207.610 C 95.450 206.745,96.800 205.758,96.800 205.418 C 96.800 205.078,97.700 204.800,98.800 204.800 C 99.900 204.800,100.800 204.447,100.800 204.015 C 100.800 203.584,101.700 203.005,102.800 202.729 C 103.900 202.452,104.800 201.906,104.800 201.513 C 104.800 201.121,105.340 200.800,106.000 200.800 C 106.660 200.800,107.200 200.440,107.200 200.000 C 107.200 199.560,107.931 199.200,108.825 199.200 C 109.719 199.200,110.657 198.660,110.911 198.000 C 111.164 197.340,112.053 196.800,112.886 196.800 C 113.719 196.800,114.400 196.447,114.400 196.015 C 114.400 195.584,115.300 195.005,116.400 194.729 C 117.500 194.452,118.400 193.906,118.400 193.513 C 118.400 193.121,118.940 192.800,119.600 192.800 C 120.260 192.800,120.800 192.440,120.800 192.000 C 120.800 191.560,121.531 191.200,122.425 191.200 C 123.319 191.200,124.257 190.660,124.511 190.000 C 124.764 189.340,125.485 188.800,126.114 188.800 C 127.124 188.800,130.920 186.748,132.000 185.618 C 132.550 185.043,138.161 181.966,141.800 180.243 C 143.450 179.462,144.800 178.367,144.800 177.811 C 144.800 177.255,145.700 176.800,146.800 176.800 C 147.900 176.800,148.800 176.440,148.800 176.000 C 148.800 175.560,149.314 175.200,149.943 175.200 C 150.571 175.200,151.561 174.750,152.143 174.200 C 152.724 173.650,154.550 172.576,156.200 171.813 C 157.850 171.050,159.200 170.060,159.200 169.613 C 159.200 169.166,159.711 168.800,160.335 168.800 C 161.763 168.800,166.388 166.205,166.395 165.400 C 166.398 165.070,167.067 164.800,167.883 164.800 C 168.699 164.800,170.337 163.900,171.524 162.800 C 172.711 161.700,174.384 160.800,175.241 160.800 C 176.099 160.800,176.800 160.479,176.800 160.087 C 176.800 159.694,177.700 159.148,178.800 158.871 C 179.900 158.595,180.800 158.016,180.800 157.585 C 180.800 157.153,181.340 156.800,182.000 156.800 C 182.660 156.800,183.200 156.440,183.200 156.000 C 183.200 155.560,183.931 155.200,184.825 155.200 C 185.719 155.200,186.657 154.660,186.911 154.000 C 187.164 153.340,187.885 152.800,188.514 152.800 C 189.524 152.800,193.320 150.748,194.400 149.618 C 196.288 147.643,203.185 146.220,203.209 147.800 C 203.214 148.130,204.654 149.088,206.409 149.929 C 208.164 150.769,209.600 151.759,209.600 152.129 C 209.600 152.498,210.320 152.800,211.200 152.800 C 212.080 152.800,212.800 153.153,212.800 153.585 C 212.800 154.016,213.700 154.595,214.800 154.871 C 215.900 155.148,216.804 155.604,216.809 155.887 C 216.814 156.169,218.254 157.088,220.009 157.929 C 221.764 158.769,223.200 159.759,223.200 160.129 C 223.200 160.498,224.070 160.800,225.133 160.800 C 226.197 160.800,227.187 161.115,227.333 161.500 C 227.733 162.550,238.248 168.800,239.614 168.800 C 240.266 168.800,240.800 169.143,240.800 169.562 C 240.800 169.982,242.150 170.958,243.800 171.732 C 245.450 172.506,247.276 173.603,247.857 174.170 C 248.439 174.736,249.429 175.200,250.057 175.200 C 250.686 175.200,251.200 175.560,251.200 176.000 C 251.200 176.440,251.901 176.800,252.759 176.800 C 253.616 176.800,255.289 177.700,256.476 178.800 C 257.663 179.900,259.301 180.800,260.117 180.800 C 260.933 180.800,261.602 181.070,261.605 181.400 C 261.611 182.066,266.129 184.800,267.224 184.800 C 267.605 184.800,268.889 185.700,270.076 186.800 C 272.159 188.730,279.191 189.809,279.205 188.200 C 279.212 187.395,283.837 184.800,285.265 184.800 C 285.889 184.800,286.400 184.440,286.400 184.000 C 286.400 183.560,286.940 183.200,287.600 183.200 C 288.260 183.200,288.800 182.660,288.800 182.000 C 288.800 181.253,289.556 180.800,290.800 180.800 C 291.900 180.800,292.800 180.464,292.800 180.054 C 292.800 179.644,293.610 179.055,294.600 178.746 C 295.590 178.437,296.580 177.963,296.800 177.692 C 297.020 177.421,298.550 176.576,300.200 175.813 C 301.850 175.050,303.200 174.060,303.200 173.613 C 303.200 173.166,303.753 172.800,304.428 172.800 C 305.542 172.800,309.416 170.709,310.400 169.577 C 310.620 169.324,312.150 168.489,313.800 167.721 C 315.450 166.953,316.800 165.982,316.800 165.562 C 316.800 165.143,317.700 164.800,318.800 164.800 C 319.900 164.800,320.800 164.498,320.800 164.129 C 320.800 163.759,322.236 162.769,323.991 161.929 C 325.746 161.088,327.186 160.130,327.191 159.800 C 327.196 159.470,327.931 159.200,328.825 159.200 C 329.719 159.200,330.657 158.660,330.911 158.000 C 331.164 157.340,332.053 156.800,332.886 156.800 C 333.719 156.800,334.400 156.479,334.400 156.087 C 334.400 155.694,335.300 155.148,336.400 154.871 C 337.500 154.595,338.400 154.016,338.400 153.585 C 338.400 153.153,338.940 152.800,339.600 152.800 C 340.260 152.800,340.800 152.440,340.800 152.000 C 340.800 151.560,341.531 151.200,342.425 151.200 C 343.319 151.200,344.257 150.660,344.511 150.000 C 344.764 149.340,345.803 148.800,346.819 148.800 C 347.835 148.800,348.787 148.523,348.933 148.186 C 349.330 147.272,357.192 142.400,358.270 142.400 C 358.782 142.400,359.200 142.040,359.200 141.600 C 359.200 141.160,359.920 140.800,360.800 140.800 C 361.680 140.800,362.400 140.482,362.400 140.093 C 362.400 139.705,363.030 139.175,363.800 138.917 C 365.319 138.406,368.157 136.699,368.800 135.908 C 369.020 135.637,370.010 135.163,371.000 134.854 C 371.990 134.545,372.800 133.956,372.800 133.546 C 372.800 133.136,373.374 132.800,374.077 132.800 C 374.779 132.800,376.487 131.990,377.874 131.000 C 380.516 129.113,384.963 126.539,389.473 124.284 C 390.944 123.549,392.332 122.465,392.559 121.874 C 392.786 121.283,393.833 120.800,394.886 120.800 C 395.939 120.800,396.800 120.464,396.800 120.054 C 396.800 119.644,397.520 119.079,398.400 118.800 C 401.130 117.933,400.382 111.200,397.556 111.200 C 396.745 111.200,395.111 110.300,393.924 109.200 C 392.737 108.100,391.137 107.200,390.369 107.200 C 389.600 107.200,388.764 106.660,388.511 106.000 C 388.257 105.340,387.319 104.800,386.425 104.800 C 385.531 104.800,384.800 104.440,384.800 104.000 C 384.800 103.560,383.900 103.200,382.800 103.200 C 381.682 103.200,380.800 102.737,380.800 102.149 C 380.800 101.571,379.555 100.610,378.033 100.013 C 376.512 99.416,375.083 98.449,374.858 97.864 C 374.634 97.279,373.740 96.800,372.872 96.800 C 372.004 96.800,371.072 96.440,370.800 96.000 C 370.528 95.560,369.607 95.200,368.753 95.200 C 367.899 95.200,367.197 94.750,367.194 94.200 C 367.187 93.191,363.692 91.200,361.926 91.200 C 361.401 91.200,360.764 90.660,360.511 90.000 C 360.257 89.340,359.319 88.800,358.425 88.800 C 357.531 88.800,356.800 88.440,356.800 88.000 C 356.800 87.560,356.119 87.200,355.286 87.200 C 354.453 87.200,353.564 86.660,353.311 86.000 C 353.057 85.340,352.299 84.800,351.625 84.800 C 350.951 84.800,350.400 84.440,350.400 84.000 C 350.400 83.560,349.669 83.200,348.775 83.200 C 347.881 83.200,346.943 82.660,346.689 82.000 C 346.436 81.340,345.547 80.800,344.714 80.800 C 343.881 80.800,343.200 80.525,343.200 80.190 C 343.200 79.579,340.830 78.134,338.200 77.142 C 337.430 76.851,336.800 76.295,336.800 75.907 C 336.800 75.518,335.900 75.200,334.800 75.200 C 333.556 75.200,332.800 74.747,332.800 74.000 C 332.800 73.253,332.044 72.800,330.800 72.800 C 329.700 72.800,328.800 72.440,328.800 72.000 C 328.800 71.560,328.260 71.200,327.600 71.200 C 326.940 71.200,326.398 70.930,326.395 70.600 C 326.388 69.795,321.763 67.200,320.335 67.200 C 319.711 67.200,319.200 66.857,319.200 66.438 C 319.200 66.018,317.850 65.042,316.200 64.268 C 314.550 63.494,312.724 62.397,312.143 61.830 C 311.561 61.264,310.571 60.800,309.943 60.800 C 309.314 60.800,308.800 60.440,308.800 60.000 C 308.800 59.560,307.900 59.200,306.800 59.200 C 305.556 59.200,304.800 58.747,304.800 58.000 C 304.800 57.333,304.089 56.800,303.200 56.800 C 302.320 56.800,301.600 56.440,301.600 56.000 C 301.600 55.560,300.919 55.200,300.086 55.200 C 299.253 55.200,298.364 54.660,298.111 54.000 C 297.857 53.340,297.099 52.800,296.425 52.800 C 295.751 52.800,295.200 52.440,295.200 52.000 C 295.200 51.560,294.499 51.200,293.641 51.200 C 292.784 51.200,291.111 50.300,289.924 49.200 C 288.737 48.100,287.137 47.200,286.369 47.200 C 285.600 47.200,284.764 46.660,284.511 46.000 C 284.257 45.340,283.319 44.800,282.425 44.800 C 281.531 44.800,280.800 44.440,280.800 44.000 C 280.800 43.560,279.900 43.200,278.800 43.200 C 277.700 43.200,276.800 42.745,276.800 42.189 C 276.800 41.633,275.450 40.556,273.800 39.796 C 269.060 37.614,263.903 34.604,261.863 32.830 C 260.832 31.934,259.309 31.200,258.480 31.200 C 257.650 31.200,256.764 30.660,256.511 30.000 C 256.257 29.340,255.319 28.800,254.425 28.800 C 253.531 28.800,252.800 28.440,252.800 28.000 C 252.800 27.560,252.260 27.200,251.600 27.200 C 250.940 27.200,250.398 26.930,250.395 26.600 C 250.388 25.821,245.783 23.200,244.421 23.200 C 243.843 23.200,243.164 22.660,242.911 22.000 C 242.657 21.340,241.719 20.800,240.825 20.800 C 239.931 20.800,239.196 20.530,239.191 20.200 C 239.186 19.870,237.746 18.912,235.991 18.071 C 234.236 17.231,232.800 16.241,232.800 15.871 C 232.800 15.502,231.939 15.200,230.886 15.200 C 229.833 15.200,228.764 14.660,228.511 14.000 C 228.257 13.340,227.319 12.800,226.425 12.800 C 225.531 12.800,224.800 12.440,224.800 12.000 C 224.800 11.560,224.260 11.200,223.600 11.200 C 222.940 11.200,222.400 10.847,222.400 10.415 C 222.400 9.984,221.500 9.405,220.400 9.129 C 219.300 8.852,218.400 8.306,218.400 7.913 C 218.400 7.521,217.719 7.200,216.886 7.200 C 216.053 7.200,215.164 6.660,214.911 6.000 C 214.657 5.340,213.719 4.800,212.825 4.800 C 211.931 4.800,211.200 4.440,211.200 4.000 C 211.200 3.560,210.660 3.200,210.000 3.200 C 209.340 3.200,208.800 2.875,208.800 2.478 C 208.800 0.342,197.985 -0.745,193.400 0.930 " stroke="none" fill="#fdb940" fill-rule="evenodd"></path><path id="path3" d="" stroke="none" fill="#ffff00" fill-rule="evenodd"></path><path id="path4" d="M396.800 202.000 C 396.800 202.667,396.089 203.200,395.200 203.200 C 394.320 203.200,393.600 203.515,393.600 203.900 C 393.600 204.285,392.463 204.828,391.072 205.106 C 389.682 205.384,388.776 205.843,389.060 206.127 C 389.655 206.721,385.960 208.800,384.309 208.800 C 383.699 208.800,383.200 209.340,383.200 210.000 C 383.200 210.747,382.444 211.200,381.200 211.200 C 380.100 211.200,379.200 211.475,379.200 211.810 C 379.200 212.421,378.834 212.644,373.077 215.557 C 371.385 216.413,369.712 217.583,369.360 218.157 C 369.008 218.731,367.778 219.200,366.627 219.200 C 365.475 219.200,364.763 219.430,365.045 219.711 C 365.326 219.992,364.126 220.930,362.378 221.795 C 360.630 222.660,359.200 223.690,359.200 224.084 C 359.200 224.478,358.469 224.800,357.575 224.800 C 356.681 224.800,355.743 225.340,355.489 226.000 C 355.236 226.660,354.568 227.200,354.006 227.200 C 352.739 227.200,349.964 228.637,346.665 231.000 C 345.284 231.990,343.617 232.800,342.962 232.800 C 342.307 232.800,341.564 233.340,341.311 234.000 C 341.057 234.660,340.119 235.200,339.225 235.200 C 338.331 235.200,337.600 235.560,337.600 236.000 C 337.600 236.440,337.099 236.800,336.486 236.800 C 335.873 236.800,335.164 237.340,334.911 238.000 C 334.657 238.660,333.719 239.200,332.825 239.200 C 331.931 239.200,331.200 239.560,331.200 240.000 C 331.200 240.440,330.469 240.800,329.575 240.800 C 328.681 240.800,327.743 241.340,327.489 242.000 C 327.236 242.660,326.400 243.200,325.631 243.200 C 324.863 243.200,323.263 244.100,322.076 245.200 C 320.889 246.300,319.486 247.226,318.959 247.258 C 318.431 247.291,316.920 247.995,315.600 248.823 C 314.280 249.651,311.940 250.961,310.400 251.734 C 308.860 252.507,307.124 253.603,306.543 254.170 C 305.961 254.736,304.971 255.200,304.343 255.200 C 303.714 255.200,303.200 255.560,303.200 256.000 C 303.200 256.440,302.498 256.800,301.640 256.800 C 300.782 256.800,299.792 257.250,299.440 257.800 C 298.622 259.079,295.556 260.800,294.096 260.800 C 293.478 260.800,292.764 261.340,292.511 262.000 C 292.257 262.660,291.499 263.200,290.825 263.200 C 290.151 263.200,289.600 263.560,289.600 264.000 C 289.600 264.440,289.086 264.800,288.457 264.800 C 287.829 264.800,286.825 265.250,286.226 265.800 C 284.525 267.363,281.740 268.800,280.411 268.800 C 279.745 268.800,279.200 269.153,279.200 269.585 C 279.200 270.016,278.300 270.595,277.200 270.871 C 276.100 271.148,275.196 271.604,275.191 271.887 C 275.186 272.169,273.746 273.088,271.991 273.929 C 270.236 274.769,268.800 275.759,268.800 276.129 C 268.800 276.498,268.080 276.800,267.200 276.800 C 266.320 276.800,265.600 277.153,265.600 277.585 C 265.600 278.016,264.700 278.595,263.600 278.871 C 262.500 279.148,261.596 279.604,261.591 279.887 C 261.586 280.169,260.146 281.088,258.391 281.929 C 256.636 282.769,255.200 283.759,255.200 284.129 C 255.200 284.498,254.643 284.800,253.962 284.800 C 253.280 284.800,250.753 286.060,248.346 287.600 C 245.939 289.140,243.660 290.400,243.282 290.400 C 242.905 290.400,242.148 290.940,241.600 291.600 C 241.052 292.260,239.928 292.800,239.102 292.800 C 238.276 292.800,237.600 293.160,237.600 293.600 C 237.600 294.040,237.245 294.400,236.812 294.400 C 235.797 294.400,227.684 299.337,227.333 300.168 C 227.187 300.516,226.539 300.800,225.895 300.800 C 225.250 300.800,222.850 301.992,220.562 303.449 C 218.273 304.905,215.860 306.356,215.200 306.673 C 214.540 306.990,212.200 308.315,210.000 309.618 C 207.800 310.922,205.370 312.213,204.600 312.487 C 203.830 312.762,203.200 313.305,203.200 313.693 C 203.200 314.082,201.760 314.400,200.000 314.400 C 198.240 314.400,196.800 314.040,196.800 313.600 C 196.800 313.160,196.260 312.800,195.600 312.800 C 194.940 312.800,194.398 312.530,194.395 312.200 C 194.388 311.395,189.763 308.800,188.335 308.800 C 187.711 308.800,187.200 308.447,187.200 308.015 C 187.200 307.584,186.300 307.005,185.200 306.729 C 184.100 306.452,183.200 305.906,183.200 305.513 C 183.200 305.121,182.833 304.800,182.384 304.800 C 181.935 304.800,180.143 303.900,178.400 302.800 C 176.657 301.700,174.723 300.800,174.101 300.800 C 173.480 300.800,172.755 300.237,172.491 299.549 C 172.227 298.861,171.649 298.523,171.206 298.797 C 170.763 299.070,170.400 298.937,170.400 298.501 C 170.400 298.065,169.607 297.456,168.637 297.148 C 167.668 296.841,166.382 296.096,165.780 295.494 C 165.178 294.893,164.171 294.400,163.543 294.400 C 162.914 294.400,162.400 294.040,162.400 293.600 C 162.400 293.160,161.680 292.800,160.800 292.800 C 159.920 292.800,159.200 292.498,159.200 292.129 C 159.200 291.759,157.764 290.769,156.009 289.929 C 154.254 289.088,152.814 288.169,152.809 287.887 C 152.804 287.604,151.900 287.148,150.800 286.871 C 149.700 286.595,148.800 286.016,148.800 285.585 C 148.800 285.153,147.900 284.800,146.800 284.800 C 145.700 284.800,144.800 284.471,144.800 284.069 C 144.800 283.667,142.370 281.966,139.400 280.289 C 136.430 278.612,132.920 276.589,131.600 275.793 C 130.280 274.997,128.210 273.919,127.000 273.397 C 125.790 272.876,124.800 272.168,124.800 271.825 C 124.800 271.481,124.286 271.200,123.657 271.200 C 123.029 271.200,122.039 270.736,121.457 270.170 C 120.876 269.603,119.050 268.506,117.400 267.732 C 115.750 266.958,114.400 265.982,114.400 265.562 C 114.400 265.143,113.847 264.800,113.172 264.800 C 112.496 264.800,111.056 264.219,109.972 263.508 C 108.887 262.797,108.000 262.420,108.000 262.670 C 108.000 262.919,107.047 262.241,105.883 261.162 C 104.719 260.083,103.323 259.200,102.781 259.200 C 102.239 259.200,101.348 258.660,100.800 258.000 C 100.252 257.340,99.128 256.800,98.302 256.800 C 97.476 256.800,96.800 256.440,96.800 256.000 C 96.800 255.560,96.069 255.200,95.175 255.200 C 94.281 255.200,93.343 254.660,93.089 254.000 C 92.836 253.340,92.127 252.800,91.514 252.800 C 90.901 252.800,90.400 252.440,90.400 252.000 C 90.400 251.560,89.669 251.200,88.775 251.200 C 87.881 251.200,86.943 250.660,86.689 250.000 C 86.436 249.340,85.547 248.800,84.714 248.800 C 83.881 248.800,83.200 248.440,83.200 248.000 C 83.200 247.560,82.480 247.200,81.600 247.200 C 80.720 247.200,80.000 246.866,80.000 246.459 C 80.000 245.629,75.500 243.200,73.963 243.200 C 73.417 243.200,72.764 242.660,72.511 242.000 C 72.257 241.340,71.319 240.800,70.425 240.800 C 69.531 240.800,68.800 240.440,68.800 240.000 C 68.800 239.560,68.416 239.200,67.947 239.200 C 67.477 239.200,65.913 238.300,64.471 237.200 C 63.029 236.100,61.242 235.200,60.499 235.200 C 59.757 235.200,58.943 234.660,58.689 234.000 C 58.436 233.340,57.577 232.800,56.781 232.800 C 55.985 232.800,55.189 232.367,55.012 231.837 C 54.419 230.056,48.978 230.953,44.806 233.520 C 42.589 234.884,40.653 236.000,40.503 236.000 C 40.222 236.000,34.855 239.077,16.000 250.048 C 10.060 253.504,4.042 256.887,2.626 257.566 L 0.052 258.800 0.026 303.457 C -0.002 350.687,-0.023 350.400,3.568 350.400 C 4.273 350.400,5.057 350.940,5.311 351.600 C 5.564 352.260,6.453 352.800,7.286 352.800 C 8.119 352.800,8.800 353.075,8.800 353.410 C 8.800 354.021,11.170 355.466,13.800 356.458 C 14.570 356.749,15.200 357.305,15.200 357.693 C 15.200 358.082,16.100 358.400,17.200 358.400 C 18.444 358.400,19.200 358.853,19.200 359.600 C 19.200 360.260,19.745 360.800,20.411 360.800 C 21.943 360.800,25.002 362.490,25.840 363.800 C 26.192 364.350,27.182 364.800,28.040 364.800 C 28.898 364.800,29.600 365.160,29.600 365.600 C 29.600 366.040,30.281 366.400,31.114 366.400 C 31.947 366.400,32.836 366.940,33.089 367.600 C 33.343 368.260,34.101 368.800,34.775 368.800 C 35.449 368.800,36.000 369.160,36.000 369.600 C 36.000 370.040,36.681 370.400,37.514 370.400 C 38.347 370.400,39.236 370.940,39.489 371.600 C 39.743 372.260,40.681 372.800,41.575 372.800 C 42.469 372.800,43.200 373.160,43.200 373.600 C 43.200 374.040,43.901 374.400,44.759 374.400 C 45.616 374.400,47.289 375.300,48.476 376.400 C 49.663 377.500,51.301 378.400,52.117 378.400 C 52.933 378.400,53.600 378.733,53.600 379.139 C 53.600 379.810,55.797 381.123,64.000 385.355 C 65.540 386.150,67.276 387.250,67.857 387.800 C 68.439 388.350,69.429 388.800,70.057 388.800 C 70.686 388.800,71.200 389.160,71.200 389.600 C 71.200 390.040,71.902 390.400,72.760 390.400 C 73.618 390.400,74.608 390.869,74.960 391.443 C 75.312 392.017,76.950 393.114,78.600 393.881 C 80.250 394.648,81.600 395.618,81.600 396.038 C 81.600 396.457,82.085 396.800,82.677 396.800 C 84.077 396.800,88.798 399.156,88.806 399.859 C 88.814 400.511,92.730 402.400,94.074 402.400 C 94.599 402.400,95.236 402.940,95.489 403.600 C 95.743 404.260,96.681 404.800,97.575 404.800 C 98.469 404.800,99.200 405.160,99.200 405.600 C 99.200 406.040,99.740 406.400,100.400 406.400 C 101.060 406.400,101.600 406.753,101.600 407.185 C 101.600 407.616,102.500 408.195,103.600 408.471 C 104.700 408.748,105.600 409.294,105.600 409.687 C 105.600 410.079,106.302 410.400,107.160 410.400 C 108.018 410.400,109.008 410.869,109.360 411.443 C 109.712 412.017,111.385 413.187,113.077 414.043 C 118.834 416.956,119.200 417.179,119.200 417.790 C 119.200 418.125,120.100 418.400,121.200 418.400 C 122.300 418.400,123.200 418.743,123.200 419.162 C 123.200 419.582,124.550 420.558,126.200 421.332 C 127.850 422.106,129.676 423.203,130.257 423.770 C 130.839 424.336,131.829 424.800,132.457 424.800 C 133.086 424.800,133.600 425.160,133.600 425.600 C 133.600 426.040,134.281 426.400,135.114 426.400 C 135.947 426.400,136.836 426.940,137.089 427.600 C 137.343 428.260,138.101 428.800,138.775 428.800 C 139.449 428.800,140.000 429.160,140.000 429.600 C 140.000 430.040,140.720 430.400,141.600 430.400 C 142.480 430.400,143.200 430.753,143.200 431.185 C 143.200 431.616,144.100 432.195,145.200 432.471 C 146.300 432.748,147.200 433.294,147.200 433.687 C 147.200 434.079,148.100 434.400,149.200 434.400 C 150.300 434.400,151.203 434.850,151.206 435.400 C 151.213 436.433,154.723 438.400,156.559 438.400 C 157.132 438.400,157.600 438.678,157.600 439.018 C 157.600 439.358,158.950 440.339,160.600 441.197 C 162.250 442.056,164.714 443.577,166.076 444.579 C 167.437 445.581,169.147 446.400,169.876 446.400 C 170.604 446.400,171.200 446.736,171.200 447.146 C 171.200 447.556,172.010 448.145,173.000 448.454 C 173.990 448.763,174.980 449.237,175.200 449.508 C 175.843 450.299,178.681 452.006,180.200 452.517 C 180.970 452.775,181.600 453.305,181.600 453.693 C 181.600 454.082,182.299 454.400,183.153 454.400 C 184.007 454.400,184.922 454.750,185.187 455.179 C 185.451 455.607,187.003 456.574,188.634 457.327 C 190.265 458.081,192.459 459.350,193.508 460.149 C 197.076 462.863,206.019 461.907,209.771 458.412 C 210.723 457.525,211.930 456.800,212.453 456.800 C 212.976 456.800,213.852 456.260,214.400 455.600 C 214.948 454.940,215.948 454.400,216.622 454.400 C 217.297 454.400,219.029 453.500,220.471 452.400 C 221.913 451.300,223.477 450.400,223.947 450.400 C 224.416 450.400,224.800 450.040,224.800 449.600 C 224.800 449.160,225.531 448.800,226.425 448.800 C 227.319 448.800,228.257 448.260,228.511 447.600 C 228.764 446.940,229.417 446.400,229.963 446.400 C 231.500 446.400,236.000 443.971,236.000 443.141 C 236.000 442.734,236.720 442.400,237.600 442.400 C 238.480 442.400,239.200 442.040,239.200 441.600 C 239.200 441.160,239.931 440.800,240.825 440.800 C 241.719 440.800,242.657 440.260,242.911 439.600 C 243.164 438.940,244.053 438.400,244.886 438.400 C 245.719 438.400,246.400 438.125,246.400 437.790 C 246.400 437.179,248.770 435.734,251.400 434.742 C 252.170 434.451,252.800 433.895,252.800 433.507 C 252.800 433.118,253.531 432.800,254.425 432.800 C 255.319 432.800,256.257 432.260,256.511 431.600 C 256.764 430.940,257.600 430.400,258.369 430.400 C 259.137 430.400,260.737 429.500,261.924 428.400 C 263.111 427.300,264.784 426.400,265.641 426.400 C 266.499 426.400,267.200 426.040,267.200 425.600 C 267.200 425.160,267.593 424.800,268.074 424.800 C 268.554 424.800,269.857 424.085,270.968 423.211 C 272.079 422.337,273.306 421.818,273.694 422.058 C 274.082 422.298,274.400 422.113,274.400 421.647 C 274.400 421.181,274.940 420.800,275.600 420.800 C 276.260 420.800,276.800 420.260,276.800 419.600 C 276.800 418.853,277.556 418.400,278.800 418.400 C 279.900 418.400,280.800 418.125,280.800 417.790 C 280.800 417.151,281.454 416.760,287.505 413.780 C 289.537 412.779,291.200 411.609,291.200 411.180 C 291.200 410.751,291.711 410.400,292.335 410.400 C 293.763 410.400,298.388 407.805,298.395 407.000 C 298.398 406.670,298.940 406.400,299.600 406.400 C 300.260 406.400,300.800 406.040,300.800 405.600 C 300.800 405.160,301.531 404.800,302.425 404.800 C 303.319 404.800,304.257 404.260,304.511 403.600 C 304.764 402.940,305.417 402.400,305.963 402.400 C 307.500 402.400,312.000 399.971,312.000 399.141 C 312.000 398.734,312.720 398.400,313.600 398.400 C 314.480 398.400,315.200 398.040,315.200 397.600 C 315.200 397.160,315.931 396.800,316.825 396.800 C 317.719 396.800,318.657 396.260,318.911 395.600 C 319.164 394.940,320.053 394.400,320.886 394.400 C 321.719 394.400,322.400 394.079,322.400 393.687 C 322.400 393.294,323.300 392.748,324.400 392.471 C 325.500 392.195,326.400 391.616,326.400 391.185 C 326.400 390.753,326.940 390.400,327.600 390.400 C 328.260 390.400,328.800 390.040,328.800 389.600 C 328.800 389.160,329.700 388.800,330.800 388.800 C 332.044 388.800,332.800 388.347,332.800 387.600 C 332.800 386.940,333.345 386.400,334.011 386.400 C 335.543 386.400,338.602 384.710,339.440 383.400 C 339.792 382.850,340.782 382.400,341.640 382.400 C 342.498 382.400,343.200 382.040,343.200 381.600 C 343.200 381.160,343.881 380.800,344.714 380.800 C 345.547 380.800,346.436 380.260,346.689 379.600 C 346.943 378.940,347.881 378.400,348.775 378.400 C 349.669 378.400,350.400 378.040,350.400 377.600 C 350.400 377.160,350.940 376.800,351.600 376.800 C 352.260 376.800,352.800 376.260,352.800 375.600 C 352.800 374.853,353.556 374.400,354.800 374.400 C 355.900 374.400,356.800 374.040,356.800 373.600 C 356.800 373.160,357.531 372.800,358.425 372.800 C 359.319 372.800,360.257 372.260,360.511 371.600 C 360.764 370.940,361.653 370.400,362.486 370.400 C 363.319 370.400,364.000 370.040,364.000 369.600 C 364.000 369.160,364.720 368.800,365.600 368.800 C 366.489 368.800,367.200 368.267,367.200 367.600 C 367.200 366.940,367.830 366.389,368.600 366.375 C 369.370 366.361,370.683 365.832,371.518 365.200 C 372.353 364.568,373.343 364.241,373.718 364.473 C 374.093 364.705,374.400 364.530,374.400 364.085 C 374.400 363.639,375.693 362.661,377.273 361.912 C 378.854 361.162,380.332 360.065,380.559 359.474 C 380.786 358.883,381.833 358.400,382.886 358.400 C 383.939 358.400,384.800 358.040,384.800 357.600 C 384.800 357.160,385.314 356.800,385.943 356.800 C 386.571 356.800,387.561 356.350,388.143 355.800 C 388.724 355.250,390.280 354.261,391.600 353.601 C 392.920 352.942,394.288 351.952,394.640 351.401 C 394.992 350.851,395.910 350.400,396.680 350.400 C 400.056 350.400,400.000 351.687,400.000 274.640 C 400.000 201.333,399.988 200.800,398.400 200.800 C 397.511 200.800,396.800 201.333,396.800 202.000 " stroke="none" fill="#525c86" fill-rule="evenodd"></path></g></svg>