<svg id="svg" version="1.1" width="40px" height="40px" viewBox="0 0 500 500" xmlns="http://www.w3.org/2000/svg" xmlns:xlink="http://www.w3.org/1999/xlink" style="display: block;"><g id="svgg"><path id="path0" d="M119.200 126.375 L 119.200 135.949 128.600 136.175 L 138.000 136.400 138.000 200.000 L 138.000 263.600 128.600 263.825 L 119.200 264.051 119.200 273.625 L 119.200 283.200 150.800 283.200 L 182.400 283.200 182.400 273.600 L 182.400 264.000 172.790 264.000 L 163.180 264.000 163.390 234.600 L 163.600 205.200 200.000 205.200 L 236.400 205.200 236.400 234.400 L 236.400 263.600 227.000 263.825 L 217.600 264.051 217.600 273.625 L 217.600 283.200 249.200 283.200 L 280.800 283.200 280.800 273.600 L 280.800 264.000 271.698 264.000 C 265.000 264.000,262.357 263.713,261.693 262.912 C 261.036 262.120,260.846 244.778,260.995 199.112 L 261.200 136.400 271.000 136.175 L 280.800 135.951 280.800 126.375 L 280.800 116.800 249.200 116.800 L 217.600 116.800 217.600 126.400 L 217.600 136.000 227.200 136.000 L 236.800 136.000 236.800 160.800 L 236.800 185.600 200.000 185.600 L 163.200 185.600 163.200 160.800 L 163.200 136.000 172.800 136.000 L 182.400 136.000 182.400 126.400 L 182.400 116.800 150.800 116.800 L 119.200 116.800 119.200 126.375 " stroke="none" fill="#ffffff" fill-rule="evenodd"></path><path id="path1" d="M170.600 0.547 C 167.850 0.728,165.600 1.187,165.600 1.566 C 165.600 1.946,162.540 2.511,158.800 2.823 C 155.060 3.134,152.000 3.707,152.000 4.095 C 152.000 4.483,150.740 4.800,149.200 4.800 C 147.660 4.800,146.400 5.089,146.400 5.442 C 146.400 6.010,142.522 7.139,135.800 8.527 C 134.590 8.777,133.600 9.260,133.600 9.600 C 133.600 9.940,131.980 10.461,130.000 10.758 C 128.020 11.055,126.400 11.636,126.400 12.049 C 126.400 12.462,125.500 12.800,124.400 12.800 C 123.300 12.800,122.400 13.160,122.400 13.600 C 122.400 14.040,122.042 14.400,121.605 14.400 C 120.239 14.400,114.400 17.146,114.400 17.789 C 114.400 18.125,113.500 18.400,112.400 18.400 C 111.300 18.400,110.400 18.721,110.400 19.113 C 110.400 19.506,109.500 20.052,108.400 20.329 C 107.300 20.605,106.400 21.184,106.400 21.615 C 106.400 22.047,105.680 22.400,104.800 22.400 C 103.920 22.400,103.200 22.731,103.200 23.136 C 103.200 23.541,102.120 24.110,100.800 24.400 C 99.480 24.690,98.396 25.169,98.391 25.464 C 98.386 25.759,96.958 26.682,95.217 27.516 C 93.477 28.349,91.384 29.655,90.565 30.418 C 89.747 31.180,88.295 32.053,87.339 32.356 C 86.382 32.660,85.600 33.244,85.600 33.654 C 85.600 34.064,85.060 34.400,84.400 34.400 C 83.740 34.400,83.200 34.682,83.200 35.028 C 83.200 35.373,82.030 36.344,80.600 37.185 C 79.170 38.027,77.344 39.544,76.542 40.558 C 75.740 41.571,74.734 42.400,74.306 42.400 C 73.878 42.400,72.627 43.300,71.527 44.400 C 70.427 45.500,69.208 46.400,68.818 46.400 C 68.427 46.400,67.879 47.120,67.600 48.000 C 67.321 48.880,66.575 49.600,65.942 49.600 C 64.519 49.600,49.600 64.621,49.600 66.054 C 49.600 66.625,48.880 67.321,48.000 67.600 C 47.120 67.879,46.400 68.427,46.400 68.818 C 46.400 69.208,45.500 70.427,44.400 71.527 C 43.300 72.627,42.400 73.878,42.400 74.306 C 42.400 74.734,41.571 75.740,40.558 76.542 C 39.544 77.344,38.027 79.170,37.185 80.600 C 36.344 82.030,35.373 83.200,35.028 83.200 C 34.682 83.200,34.400 83.740,34.400 84.400 C 34.400 85.060,34.064 85.600,33.654 85.600 C 33.244 85.600,32.660 86.382,32.356 87.339 C 32.053 88.295,31.180 89.747,30.418 90.565 C 29.655 91.384,28.349 93.477,27.516 95.217 C 26.682 96.958,25.759 98.386,25.464 98.391 C 25.169 98.396,24.690 99.480,24.400 100.800 C 24.110 102.120,23.541 103.200,23.136 103.200 C 22.731 103.200,22.400 103.920,22.400 104.800 C 22.400 105.680,22.047 106.400,21.615 106.400 C 21.184 106.400,20.605 107.300,20.329 108.400 C 20.052 109.500,19.506 110.400,19.113 110.400 C 18.721 110.400,18.400 111.300,18.400 112.400 C 18.400 113.500,18.125 114.400,17.789 114.400 C 17.146 114.400,14.400 120.239,14.400 121.605 C 14.400 122.042,14.040 122.400,13.600 122.400 C 13.160 122.400,12.800 123.300,12.800 124.400 C 12.800 125.500,12.462 126.400,12.049 126.400 C 11.636 126.400,11.055 128.020,10.758 130.000 C 10.461 131.980,9.940 133.600,9.600 133.600 C 9.260 133.600,8.777 134.590,8.527 135.800 C 7.139 142.522,6.010 146.400,5.442 146.400 C 5.089 146.400,4.800 147.660,4.800 149.200 C 4.800 150.740,4.486 152.000,4.103 152.000 C 3.720 152.000,3.148 154.969,2.831 158.597 C 2.515 162.226,1.838 165.453,1.328 165.768 C 0.001 166.588,0.001 233.412,1.328 234.232 C 1.838 234.547,2.515 237.774,2.831 241.403 C 3.148 245.031,3.720 248.000,4.103 248.000 C 4.486 248.000,4.800 249.260,4.800 250.800 C 4.800 252.340,5.126 253.600,5.525 253.600 C 5.924 253.600,6.497 255.400,6.800 257.599 C 7.102 259.799,7.676 261.800,8.075 262.046 C 8.474 262.293,8.800 263.373,8.800 264.447 C 8.800 265.521,9.115 266.400,9.500 266.400 C 9.885 266.400,10.433 267.567,10.719 268.994 C 11.345 272.127,12.996 276.000,13.704 276.000 C 13.987 276.000,14.461 277.620,14.758 279.600 C 15.055 281.580,15.636 283.200,16.049 283.200 C 16.462 283.200,16.800 283.740,16.800 284.400 C 16.800 285.060,17.160 285.600,17.600 285.600 C 18.040 285.600,18.400 286.111,18.400 286.735 C 18.400 288.070,20.931 293.080,21.800 293.467 C 22.130 293.613,22.400 294.423,22.400 295.267 C 22.400 296.110,22.721 296.800,23.113 296.800 C 23.506 296.800,24.070 297.769,24.367 298.953 C 24.664 300.137,25.545 301.667,26.326 302.353 C 27.106 303.039,27.968 304.507,28.241 305.616 C 28.514 306.725,29.428 308.372,30.271 309.277 C 31.114 310.182,32.053 311.705,32.356 312.661 C 32.660 313.618,33.244 314.400,33.654 314.400 C 34.064 314.400,34.400 314.809,34.400 315.308 C 34.400 315.808,35.300 317.051,36.400 318.070 C 37.500 319.090,38.400 320.395,38.400 320.972 C 38.400 321.548,39.300 322.696,40.400 323.522 C 41.500 324.348,42.400 325.449,42.400 325.968 C 42.400 326.487,43.300 327.694,44.400 328.650 C 45.500 329.607,46.400 330.728,46.400 331.141 C 46.400 331.554,47.102 332.115,47.959 332.387 C 48.817 332.659,49.720 333.517,49.966 334.294 C 50.412 335.699,61.940 348.000,62.811 348.000 C 63.328 348.000,65.203 349.489,66.638 351.038 C 67.167 351.609,68.067 352.509,68.639 353.038 C 69.210 353.567,70.543 354.810,71.602 355.800 C 72.661 356.790,73.853 357.600,74.252 357.600 C 74.650 357.600,75.652 358.500,76.478 359.600 C 77.304 360.700,78.452 361.600,79.028 361.600 C 79.605 361.600,80.910 362.500,81.930 363.600 C 82.949 364.700,84.192 365.600,84.692 365.600 C 85.191 365.600,85.600 365.936,85.600 366.346 C 85.600 366.756,86.382 367.340,87.339 367.644 C 88.295 367.947,89.770 368.842,90.618 369.631 C 91.465 370.420,93.053 371.291,94.147 371.565 C 95.241 371.840,96.909 372.784,97.852 373.663 C 98.796 374.543,100.385 375.467,101.384 375.718 C 102.383 375.968,103.200 376.494,103.200 376.887 C 103.200 377.279,103.920 377.600,104.800 377.600 C 105.680 377.600,106.400 377.960,106.400 378.400 C 106.400 378.840,106.940 379.200,107.600 379.200 C 108.260 379.200,108.800 379.531,108.800 379.936 C 108.800 380.341,109.970 380.927,111.400 381.237 C 112.830 381.547,114.180 382.045,114.400 382.342 C 115.140 383.344,120.626 385.600,122.321 385.600 C 123.244 385.600,124.000 385.889,124.000 386.242 C 124.000 387.001,130.982 389.610,133.000 389.604 C 133.770 389.602,134.400 389.960,134.400 390.400 C 134.400 390.840,135.300 391.200,136.400 391.200 C 137.500 391.200,138.400 391.542,138.400 391.960 C 138.400 392.378,140.560 392.965,143.200 393.264 C 145.840 393.562,148.000 394.120,148.000 394.503 C 148.000 394.886,149.230 395.200,150.733 395.200 C 152.237 395.200,153.587 395.539,153.733 395.953 C 153.880 396.368,156.880 396.960,160.400 397.270 C 163.920 397.580,167.057 398.232,167.371 398.717 C 168.188 399.982,231.831 399.961,232.629 398.696 C 232.943 398.198,236.170 397.531,239.800 397.212 C 243.430 396.894,246.400 396.311,246.400 395.917 C 246.400 395.523,247.660 395.200,249.200 395.200 C 250.740 395.200,252.000 394.875,252.000 394.479 C 252.000 394.082,254.160 393.506,256.800 393.200 C 259.440 392.894,261.600 392.318,261.600 391.921 C 261.600 391.525,262.500 391.200,263.600 391.200 C 264.700 391.200,265.600 390.840,265.600 390.400 C 265.600 389.960,266.313 389.600,267.184 389.600 C 268.795 389.600,275.271 387.287,276.000 386.452 C 276.220 386.200,278.470 385.306,281.000 384.467 C 283.530 383.627,285.600 382.679,285.600 382.359 C 285.600 382.040,286.860 381.542,288.400 381.253 C 289.940 380.964,291.200 380.384,291.200 379.964 C 291.200 379.544,291.740 379.200,292.400 379.200 C 293.060 379.200,293.600 378.840,293.600 378.400 C 293.600 377.960,294.320 377.600,295.200 377.600 C 296.080 377.600,296.800 377.279,296.800 376.887 C 296.800 376.494,297.700 375.948,298.800 375.671 C 299.900 375.395,300.800 374.816,300.800 374.385 C 300.800 373.953,301.340 373.600,302.000 373.600 C 302.660 373.600,303.200 373.240,303.200 372.800 C 303.200 372.360,303.931 372.000,304.825 372.000 C 305.719 372.000,306.657 371.460,306.911 370.800 C 307.164 370.140,307.829 369.600,308.388 369.600 C 308.947 369.600,309.852 369.060,310.400 368.400 C 310.948 367.740,312.048 367.200,312.844 367.200 C 313.641 367.200,314.521 366.480,314.800 365.600 C 315.081 364.715,316.010 364.000,316.879 364.000 C 317.743 364.000,318.657 363.460,318.911 362.800 C 319.164 362.140,319.855 361.600,320.447 361.600 C 321.039 361.600,322.747 360.340,324.242 358.800 C 325.738 357.260,327.221 356.000,327.538 356.000 C 327.855 356.000,328.616 355.550,329.229 355.000 C 331.167 353.263,332.370 352.109,333.362 351.038 C 333.891 350.467,334.791 349.567,335.362 349.038 C 335.933 348.509,336.833 347.609,337.362 347.038 C 338.831 345.452,340.677 344.000,341.223 344.000 C 341.873 344.000,344.000 341.855,344.000 341.200 C 344.000 340.602,346.417 337.796,348.962 335.438 C 349.533 334.909,350.433 334.009,350.962 333.438 C 351.491 332.867,352.391 331.967,352.962 331.438 C 354.608 329.913,356.000 328.116,356.000 327.515 C 356.000 327.210,357.260 325.738,358.800 324.242 C 360.340 322.747,361.600 321.039,361.600 320.447 C 361.600 319.855,362.140 319.164,362.800 318.911 C 363.460 318.657,364.000 317.743,364.000 316.879 C 364.000 316.010,364.715 315.081,365.600 314.800 C 366.480 314.521,367.200 313.641,367.200 312.844 C 367.200 312.048,367.740 310.948,368.400 310.400 C 369.060 309.852,369.600 308.947,369.600 308.388 C 369.600 307.829,370.140 307.164,370.800 306.911 C 371.460 306.657,372.000 305.719,372.000 304.825 C 372.000 303.931,372.360 303.200,372.800 303.200 C 373.240 303.200,373.600 302.660,373.600 302.000 C 373.600 301.340,373.953 300.800,374.385 300.800 C 374.816 300.800,375.395 299.900,375.671 298.800 C 375.948 297.700,376.494 296.800,376.887 296.800 C 377.279 296.800,377.600 296.080,377.600 295.200 C 377.600 294.320,377.960 293.600,378.400 293.600 C 378.840 293.600,379.200 293.060,379.200 292.400 C 379.200 291.740,379.544 291.200,379.964 291.200 C 380.384 291.200,380.964 289.940,381.253 288.400 C 381.542 286.860,382.040 285.600,382.359 285.600 C 382.679 285.600,383.627 283.530,384.467 281.000 C 385.306 278.470,386.200 276.220,386.452 276.000 C 387.287 275.271,389.600 268.795,389.600 267.184 C 389.600 266.313,389.960 265.600,390.400 265.600 C 390.840 265.600,391.200 264.700,391.200 263.600 C 391.200 262.500,391.525 261.600,391.921 261.600 C 392.318 261.600,392.894 259.440,393.200 256.800 C 393.506 254.160,394.082 252.000,394.479 252.000 C 394.875 252.000,395.200 250.740,395.200 249.200 C 395.200 247.660,395.523 246.400,395.917 246.400 C 396.311 246.400,396.894 243.430,397.212 239.800 C 397.531 236.170,398.198 232.943,398.696 232.629 C 399.961 231.831,399.982 168.188,398.717 167.371 C 398.232 167.057,397.580 163.920,397.270 160.400 C 396.960 156.880,396.368 153.880,395.953 153.733 C 395.539 153.587,395.200 152.237,395.200 150.733 C 395.200 149.230,394.886 148.000,394.503 148.000 C 394.120 148.000,393.562 145.840,393.264 143.200 C 392.965 140.560,392.378 138.400,391.960 138.400 C 391.542 138.400,391.200 137.500,391.200 136.400 C 391.200 135.300,390.840 134.400,390.400 134.400 C 389.960 134.400,389.602 133.770,389.604 133.000 C 389.610 130.982,387.001 124.000,386.242 124.000 C 385.889 124.000,385.600 123.244,385.600 122.321 C 385.600 120.626,383.344 115.140,382.342 114.400 C 382.045 114.180,381.547 112.830,381.237 111.400 C 380.927 109.970,380.341 108.800,379.936 108.800 C 379.531 108.800,379.200 108.260,379.200 107.600 C 379.200 106.940,378.840 106.400,378.400 106.400 C 377.960 106.400,377.600 105.680,377.600 104.800 C 377.600 103.920,377.279 103.200,376.887 103.200 C 376.494 103.200,375.968 102.383,375.718 101.384 C 375.467 100.385,374.543 98.796,373.663 97.852 C 372.784 96.909,371.840 95.241,371.565 94.147 C 371.291 93.053,370.420 91.465,369.631 90.618 C 368.842 89.770,367.947 88.295,367.644 87.339 C 367.340 86.382,366.756 85.600,366.346 85.600 C 365.936 85.600,365.600 85.191,365.600 84.692 C 365.600 84.192,364.700 82.949,363.600 81.930 C 362.500 80.910,361.600 79.605,361.600 79.028 C 361.600 78.452,360.700 77.304,359.600 76.478 C 358.500 75.652,357.600 74.650,357.600 74.252 C 357.600 73.853,356.790 72.661,355.800 71.602 C 354.810 70.543,353.567 69.210,353.038 68.639 C 352.509 68.067,351.609 67.167,351.038 66.638 C 349.506 65.219,348.000 63.330,348.000 62.827 C 348.000 62.321,337.580 52.000,337.070 52.000 C 336.656 52.000,334.663 50.367,333.362 48.962 C 332.833 48.391,331.925 47.491,331.345 46.962 C 330.764 46.433,329.529 45.190,328.600 44.200 C 327.671 43.210,326.487 42.400,325.968 42.400 C 325.449 42.400,324.348 41.500,323.522 40.400 C 322.696 39.300,321.548 38.400,320.972 38.400 C 320.395 38.400,319.090 37.500,318.070 36.400 C 317.051 35.300,315.808 34.400,315.308 34.400 C 314.809 34.400,314.400 34.064,314.400 33.654 C 314.400 33.244,313.618 32.660,312.661 32.356 C 311.705 32.053,310.182 31.114,309.277 30.271 C 308.372 29.428,306.725 28.514,305.616 28.241 C 304.507 27.968,303.039 27.106,302.353 26.326 C 301.667 25.545,300.137 24.664,298.953 24.367 C 297.769 24.070,296.800 23.506,296.800 23.113 C 296.800 22.721,296.110 22.400,295.267 22.400 C 294.423 22.400,293.613 22.130,293.467 21.800 C 293.080 20.931,288.070 18.400,286.735 18.400 C 286.111 18.400,285.600 18.040,285.600 17.600 C 285.600 17.160,285.060 16.800,284.400 16.800 C 283.740 16.800,283.200 16.462,283.200 16.049 C 283.200 15.636,281.580 15.055,279.600 14.758 C 277.620 14.461,276.000 13.987,276.000 13.704 C 276.000 12.996,272.127 11.345,268.994 10.719 C 267.567 10.433,266.400 9.885,266.400 9.500 C 266.400 9.115,265.521 8.800,264.447 8.800 C 263.373 8.800,262.293 8.474,262.046 8.075 C 261.800 7.676,259.799 7.102,257.599 6.800 C 255.400 6.497,253.600 5.924,253.600 5.525 C 253.600 5.126,252.340 4.800,250.800 4.800 C 249.260 4.800,248.000 4.486,248.000 4.103 C 248.000 3.720,245.031 3.148,241.403 2.831 C 237.774 2.515,234.552 1.847,234.244 1.347 C 233.683 0.440,182.055 -0.209,170.600 0.547 M183.600 126.000 L 183.600 137.200 173.800 137.425 L 164.000 137.649 164.000 160.833 L 164.000 184.017 199.400 183.808 L 234.800 183.600 234.800 160.800 L 234.800 138.000 225.600 137.600 L 216.400 137.200 216.400 126.000 L 216.400 114.800 248.800 114.800 L 281.200 114.800 281.200 126.000 L 281.200 137.200 272.000 137.600 L 262.800 138.000 262.595 199.775 L 262.390 261.549 271.795 261.775 L 281.200 262.000 281.422 273.400 L 281.644 284.800 248.800 284.800 L 215.956 284.800 216.178 273.400 L 216.400 262.000 225.800 261.775 L 235.200 261.549 235.200 234.375 L 235.200 207.200 199.600 207.200 L 164.000 207.200 164.000 234.400 L 164.000 261.600 173.000 261.612 C 184.810 261.628,184.092 260.829,183.824 273.662 L 183.600 284.400 150.800 284.400 L 118.000 284.400 117.775 274.112 C 117.491 261.090,117.070 261.600,128.103 261.600 L 136.810 261.600 136.605 199.800 L 136.400 138.000 127.200 137.600 L 118.000 137.200 117.775 126.912 C 117.470 112.935,113.613 114.344,151.505 114.591 L 183.600 114.800 183.600 126.000 " stroke="none" fill="#1d99a3" fill-rule="evenodd"></path><path id="path2" d="M118.481 115.503 C 117.853 116.259,117.624 119.963,117.775 126.912 L 118.000 137.200 127.200 137.600 L 136.400 138.000 136.605 199.800 L 136.810 261.600 128.103 261.600 C 117.070 261.600,117.491 261.090,117.775 274.112 L 118.000 284.400 150.800 284.400 L 183.600 284.400 183.824 273.662 C 184.093 260.795,184.819 261.579,172.800 261.773 L 163.600 261.922 173.200 262.361 L 182.800 262.800 183.023 273.400 L 183.246 284.000 150.800 284.000 L 118.354 284.000 118.577 273.400 L 118.800 262.800 128.205 262.575 L 137.610 262.349 137.405 199.775 L 137.200 137.200 128.000 136.800 L 118.800 136.400 118.800 126.000 L 118.800 115.600 150.800 115.600 L 182.800 115.600 183.023 126.175 L 183.246 136.750 173.622 137.014 L 163.997 137.277 173.799 137.239 L 183.600 137.200 183.600 126.000 L 183.600 114.800 151.505 114.591 C 124.778 114.417,119.255 114.569,118.481 115.503 M216.373 115.244 C 216.080 115.718,216.056 116.322,216.320 116.587 C 216.584 116.851,216.800 116.647,216.800 116.133 C 216.800 114.894,280.459 114.782,281.073 116.020 C 281.297 116.471,281.387 116.381,281.274 115.820 C 280.999 114.463,217.206 113.897,216.373 115.244 M216.648 136.971 C 216.964 137.285,221.177 137.645,226.011 137.771 L 234.800 138.000 234.800 160.800 L 234.800 183.600 199.200 184.013 L 163.600 184.425 199.812 184.613 L 236.024 184.800 235.812 161.000 L 235.600 137.200 225.837 136.800 C 220.467 136.580,216.332 136.657,216.648 136.971 M271.800 136.597 C 266.630 136.737,262.399 137.109,262.398 137.425 C 262.396 138.273,280.270 137.631,281.160 136.751 C 281.578 136.338,281.758 136.077,281.560 136.172 C 281.362 136.267,276.970 136.458,271.800 136.597 M199.600 206.996 L 235.200 207.216 235.200 234.383 L 235.200 261.549 225.865 261.775 C 218.400 261.955,216.457 262.240,216.165 263.200 C 215.870 264.168,216.005 264.207,216.860 263.400 C 217.579 262.721,220.829 262.400,226.970 262.400 L 236.021 262.400 235.810 234.600 L 235.600 206.800 199.800 206.788 L 164.000 206.775 199.600 206.996 M271.170 262.185 C 277.175 262.362,280.578 262.791,281.031 263.428 C 281.526 264.124,281.629 264.059,281.396 263.200 C 281.130 262.222,279.307 261.992,271.535 261.957 L 262.000 261.915 271.170 262.185 M216.000 284.200 C 216.000 284.530,230.760 284.800,248.800 284.800 C 266.840 284.800,281.600 284.530,281.600 284.200 C 281.600 283.870,266.840 283.600,248.800 283.600 C 230.760 283.600,216.000 283.870,216.000 284.200 " stroke="none" fill="#56b3ba" fill-rule="evenodd"></path><path id="path3" d="M118.752 116.237 C 118.529 116.818,118.461 121.592,118.601 126.847 L 118.856 136.400 119.028 126.200 L 119.200 116.000 150.777 116.000 L 182.354 116.000 182.614 126.600 L 182.875 137.200 182.838 126.400 L 182.800 115.600 150.978 115.391 C 125.215 115.221,119.080 115.383,118.752 116.237 M216.486 116.465 C 215.785 118.291,215.886 135.835,216.600 136.278 C 216.930 136.482,217.200 132.093,217.200 126.525 L 217.200 116.400 249.200 115.986 L 281.200 115.572 249.086 115.386 C 220.429 115.220,216.919 115.336,216.486 116.465 M281.108 126.400 C 281.108 131.900,281.236 134.150,281.392 131.400 C 281.549 128.650,281.549 124.150,281.392 121.400 C 281.236 118.650,281.108 120.900,281.108 126.400 M163.582 161.000 L 163.600 185.200 199.400 185.212 L 235.200 185.225 199.612 185.004 L 164.023 184.784 163.794 160.792 L 163.564 136.799 163.582 161.000 M235.805 152.599 C 236.191 182.423,236.460 185.169,236.630 161.000 C 236.724 147.690,236.530 136.800,236.200 136.799 C 235.870 136.799,235.692 143.909,235.805 152.599 M261.993 199.800 L 262.000 262.800 271.401 262.840 L 280.803 262.880 271.606 262.614 L 262.410 262.349 262.198 199.575 L 261.985 136.800 261.993 199.800 M163.567 206.597 C 163.353 207.154,163.273 220.028,163.389 235.205 L 163.600 262.800 172.977 263.025 L 182.354 263.250 182.613 273.626 L 182.872 284.002 182.836 273.401 L 182.800 262.800 173.400 262.575 L 164.000 262.349 164.000 234.366 L 164.000 206.384 199.800 206.592 L 235.600 206.800 235.810 234.600 L 236.021 262.400 226.970 262.400 C 220.998 262.400,217.594 262.726,216.960 263.360 C 215.892 264.428,215.562 282.834,216.600 283.478 C 216.930 283.682,217.200 279.293,217.200 273.725 L 217.200 263.600 226.800 263.200 L 236.400 262.800 236.400 234.400 L 236.400 206.000 200.178 205.792 C 171.536 205.627,163.875 205.796,163.567 206.597 M118.749 263.444 C 118.529 264.019,118.462 268.969,118.601 274.444 L 118.854 284.400 119.027 273.825 L 119.200 263.251 128.600 262.997 L 138.000 262.744 128.575 262.572 C 121.433 262.442,119.053 262.653,118.749 263.444 M281.108 273.600 C 281.108 279.100,281.236 281.350,281.392 278.600 C 281.549 275.850,281.549 271.350,281.392 268.600 C 281.236 265.850,281.108 268.100,281.108 273.600 " stroke="none" fill="#95cfd3" fill-rule="evenodd"></path><path id="path4" d="M134.547 116.599 C 143.207 116.728,157.607 116.728,166.547 116.599 C 175.486 116.470,168.400 116.365,150.800 116.365 C 133.200 116.364,125.886 116.470,134.547 116.599 M217.147 117.049 C 216.926 117.626,216.847 122.216,216.972 127.249 L 217.200 136.400 226.800 136.437 L 236.400 136.474 227.000 136.212 L 217.600 135.951 217.600 126.385 L 217.600 116.818 249.400 116.600 L 281.200 116.381 249.375 116.191 C 223.726 116.037,217.472 116.204,217.147 117.049 M128.399 136.586 L 137.600 136.851 137.600 200.000 L 137.600 263.149 128.399 263.414 L 119.197 263.680 128.599 263.640 L 138.000 263.600 138.000 200.000 L 138.000 136.400 128.599 136.360 L 119.197 136.320 128.399 136.586 M167.800 136.592 C 170.550 136.749,175.050 136.749,177.800 136.592 C 180.550 136.436,178.300 136.308,172.800 136.308 C 167.300 136.308,165.050 136.436,167.800 136.592 M261.333 136.533 C 260.294 137.573,260.713 261.993,261.760 263.040 C 262.416 263.696,265.646 263.949,271.960 263.839 L 281.200 263.678 271.600 263.239 L 262.000 262.800 261.795 199.825 L 261.590 136.849 271.395 136.598 L 281.200 136.346 271.533 136.173 C 266.217 136.078,261.627 136.240,261.333 136.533 M163.724 205.400 C 163.520 205.730,179.844 206.000,200.000 206.000 C 220.156 206.000,236.480 205.730,236.276 205.400 C 235.792 204.616,164.208 204.616,163.724 205.400 M163.198 263.400 C 163.199 263.730,167.610 263.937,173.000 263.860 C 182.947 263.718,181.763 263.406,169.798 263.016 C 166.167 262.897,163.197 263.070,163.198 263.400 M226.800 263.161 L 217.200 263.600 217.200 273.600 L 217.200 283.600 248.800 283.614 L 280.400 283.628 249.000 283.405 L 217.600 283.182 217.600 273.591 L 217.600 264.000 226.753 264.000 C 231.992 264.000,236.117 263.658,236.400 263.200 C 236.672 262.760,236.783 262.472,236.647 262.561 C 236.511 262.649,232.080 262.919,226.800 263.161 M134.547 283.799 C 143.207 283.928,157.607 283.928,166.547 283.799 C 175.486 283.670,168.400 283.565,150.800 283.565 C 133.200 283.564,125.886 283.670,134.547 283.799 " stroke="none" fill="#cae7e9" fill-rule="evenodd"></path></g></svg>